<svg width="489" height="444" viewBox="0 0 489 444" fill="none" xmlns="http://www.w3.org/2000/svg">
<g style="mix-blend-mode:multiply" opacity="0.32">
<path d="M203.359 246.459C198.505 252.716 193.661 258.967 188.825 265.215C188.374 264.095 187.937 263.029 187.541 262.018C186.817 257.565 185.41 253.317 182.254 250.189C180.523 248.505 178.437 247.231 176.148 246.459H203.359Z" fill="#2F5876"/>
</g>
<g style="mix-blend-mode:multiply" opacity="0.32">
<path d="M147.203 246.459H149.58C149.78 247.998 150.1 249.519 150.536 251.008C149.105 249.755 147.967 248.202 147.203 246.459Z" fill="#2F5876"/>
</g>
<g style="mix-blend-mode:multiply" opacity="0.32">
<path d="M160.016 246.459H162.597L160.193 247.02C160.139 246.828 160.07 246.651 160.016 246.459Z" fill="#2F5876"/>
</g>
<path d="M226.577 256.459C216.947 269.367 187.072 304.46 178.876 310.839C170.68 317.218 160.244 321.289 150.081 319.759C139.918 318.229 130.424 309.801 129.591 299.365C128.854 289.721 135.055 281.129 140.956 273.52L228.134 161.044C230.866 157.451 234.377 153.503 238.885 153.599C240.457 153.735 241.973 154.249 243.304 155.095C244.636 155.942 245.744 157.096 246.534 158.462C248.097 161.234 249.147 164.265 249.635 167.409C252.531 181.616 226.577 256.459 226.577 256.459Z" fill="#EDE8DB"/>
<path d="M249.634 167.409C249.145 164.264 248.095 161.234 246.533 158.462C245.744 157.097 244.639 155.943 243.309 155.096C241.98 154.25 240.467 153.736 238.897 153.599C224.267 211.572 200.936 264.067 169.586 316.508C172.872 314.973 175.975 313.071 178.834 310.839C187.03 304.46 216.904 269.367 226.534 256.458C226.575 256.458 252.529 181.615 249.634 167.409Z" fill="#BABABA"/>
<path d="M372.743 294.092C368.453 288.696 365.585 285.746 365.448 283.997C364.15 268.766 378.289 208.252 386.826 176.083C390.815 161.057 381.362 145.717 366.964 144.064C330.407 139.834 293.477 139.948 256.947 144.405C240.118 146.454 229.531 165.223 235.678 182.339L235.787 182.653C224.026 197.584 220.119 220.901 222.769 240.326C224.723 254.655 230.774 267.933 237.795 280.282C237.249 285.295 236.716 292.302 236.238 300.621C281.801 305.605 327.864 303.402 372.743 294.092Z" fill="#FFDA79"/>
<path d="M236.137 300.58C233.719 342.421 232.558 417.783 235.645 442.931H415.178C411.326 348.677 385.55 310.32 372.669 294.037C327.781 303.354 281.709 305.562 236.137 300.58Z" fill="#DEA448"/>
<path d="M251.32 317C295.416 319.937 339.707 317.001 383.03 308.271" stroke="#CF793C" stroke-miterlimit="10"/>
<path d="M334.63 353.363C312.902 379.242 298.03 410.169 291.383 443.3" stroke="#CF793C" stroke-miterlimit="10"/>
<path d="M369.325 283.997C367.959 268.766 383.258 208.252 392.547 176.083C393.567 172.548 393.801 168.833 393.231 165.199C392.661 161.564 391.301 158.099 389.247 155.047C387.194 151.994 384.496 149.429 381.344 147.532C378.193 145.634 374.663 144.451 371.005 144.064C361.534 143.053 352.049 142.293 342.551 141.783C323.714 176.752 311.27 215.055 308.401 255.161C305.567 296.541 305.361 338.06 307.786 379.467C341.049 369.003 374.037 359.769 405.032 342.052C389.391 300.799 369.735 288.505 369.325 283.997Z" fill="#EDE8DB"/>
<path d="M275.115 142.248C267.293 142.776 259.484 143.482 251.689 144.365C247.426 144.837 243.328 146.281 239.711 148.586C236.094 150.891 233.054 153.995 230.826 157.659C228.597 161.323 227.239 165.45 226.856 169.722C226.473 173.994 227.075 178.296 228.617 182.299L228.74 182.613C215.981 197.543 211.747 220.861 214.615 240.285C216.733 254.615 223.303 267.892 230.857 280.241C229.218 293.819 227.797 321.999 227.087 351.642C241.84 359.332 255.869 368.293 269.87 377.213C258.601 299.119 258.081 219.29 275.115 142.248Z" fill="#EDE8DB"/>
<path d="M438.67 205.14L311.633 253.27L343.289 336.824L470.326 288.694L438.67 205.14Z" fill="#F0EADD"/>
<path d="M443.326 206.695L316.289 254.825L347.945 338.379L474.982 290.249L443.326 206.695Z" fill="#9E362F"/>
<path d="M474.974 290.267L443.324 206.709L429.568 211.927C430.611 223.511 429.286 235.185 425.675 246.241C413.299 283.342 380.133 316.973 339.617 316.33L347.977 338.391L474.974 290.267Z" fill="#872E28"/>
<path d="M184.372 230.409H24.9187L5.50781 124.667H164.975L184.372 230.409Z" fill="#F3AFF3"/>
<path d="M178.864 230.409H19.4109L0 124.667H159.453L178.864 230.409Z" fill="#0E1211"/>
<path d="M275.661 225.218H175.656V230.395H275.661V225.218Z" fill="#0E1211"/>
<path d="M106.371 248.263C100.367 246.899 94.9717 243.614 91.004 238.906C86.906 233.701 85.54 226.939 85.0892 220.369C84.5853 213.673 84.8834 206.941 85.9771 200.316C86.1602 198.539 86.7189 196.821 87.6163 195.276C88.0745 194.508 88.7381 193.884 89.5322 193.474C90.3263 193.063 91.2194 192.883 92.1105 192.953C95.1566 193.418 96.2085 197.284 96.2085 200.357C96.6286 200.048 97.1124 199.836 97.6246 199.737C98.1369 199.639 98.6647 199.655 99.1697 199.786C99.6747 199.917 100.144 200.159 100.544 200.494C100.944 200.829 101.264 201.249 101.481 201.723C102.541 203.953 103.011 206.417 102.847 208.881C103.052 207.378 104.691 206.026 106.071 206.641C107.386 207.399 108.363 208.63 108.803 210.083C110.497 214.263 110.743 218.866 111.535 223.306C112.327 227.745 113.775 232.362 117.218 235.286C115.715 230.259 115.701 224.836 115.346 219.59C115.243 218.677 115.298 217.753 115.51 216.858C115.627 216.41 115.853 215.997 116.168 215.657C116.482 215.316 116.876 215.058 117.313 214.905C118.911 214.468 120.346 215.984 121.275 217.364C124.068 221.577 126.222 226.18 127.667 231.024C131.765 230.095 136.205 228.838 140.344 229.357C144.54 229.768 148.483 231.555 151.559 234.439C156.845 239.698 157.624 247.839 158.088 255.27C158.088 255.257 112.245 249.82 106.371 248.263Z" fill="#AA5131"/>
<path d="M103.065 207.679C101.11 217.221 102.329 227.141 106.534 235.928" stroke="#8C371B" stroke-miterlimit="10"/>
<path d="M96.0984 199.947C92.0033 210.621 92.1893 222.464 96.6175 233.004" stroke="#8C371B" stroke-miterlimit="10"/>
<path d="M116.508 230.75C116.763 232.656 117.221 234.529 117.874 236.337C118.551 238.147 119.761 239.709 121.343 240.818C122.134 241.359 123.043 241.702 123.994 241.818C124.945 241.935 125.91 241.821 126.807 241.487" stroke="#8C371B" stroke-miterlimit="10"/>
<path d="M125.82 226.721C127.509 230.107 127.898 233.995 126.913 237.649" stroke="#8C371B" stroke-miterlimit="10"/>
<path d="M155.078 240.613C154.286 240.9 164.408 264.409 165.433 266.881C171.293 280.883 175.131 301.031 162.81 313.448C157.059 319.24 147.497 321.918 139.861 318.748C129.302 314.35 128.796 301.605 129.275 291.866C129.971 277.55 131.446 263.275 132.935 249L155.078 240.613Z" fill="#AA5131"/>
<path d="M363.18 235.053C369.682 249.779 402.439 311.003 408.995 319.035C415.552 327.067 424.773 333.433 435.072 334.17C445.372 334.908 456.45 328.87 459.565 318.871C462.433 309.637 458.308 299.87 454.265 291.141L394.434 162.013C392.521 157.915 390.035 153.285 385.623 152.356C384.06 152.138 382.467 152.301 380.981 152.832C379.494 153.362 378.158 154.244 377.086 155.402C374.937 157.747 373.233 160.464 372.059 163.42C365.98 176.602 363.18 235.053 363.18 235.053Z" fill="#EDE8DB"/>
<path d="M460.672 314.213C468.731 272.031 471.709 235.504 477.924 193.021C478.648 182.093 469.045 183.678 459.756 182.203C446.356 224.549 409.816 302.069 410.703 310.607C411.591 319.144 415.498 327.777 422.683 332.463C429.868 337.148 454.497 346.573 460.672 314.213Z" fill="#AA5131"/>
<path d="M475.012 214.126C475.299 211.927 475.586 209.728 475.887 207.501C467.267 210.042 457.965 211.094 450.957 206.982C450.247 208.853 449.509 210.766 448.758 212.692C456.94 216.831 466.188 216.585 475.012 214.126Z" fill="#0E1211"/>
<path d="M488.772 114.104L453.492 95.4946L415.803 166.949L451.083 185.558L488.772 114.104Z" fill="#F3AFF3"/>
<path d="M488.78 114.084L458.562 98.1455L420.873 169.6L451.091 185.539L488.78 114.084Z" fill="#0E1211"/>
<path d="M450.148 110.447L453.932 103.262C454.073 103.108 454.176 102.924 454.235 102.724C454.293 102.524 454.306 102.314 454.27 102.108C454.235 101.903 454.153 101.708 454.031 101.54C453.909 101.371 453.75 101.232 453.566 101.134C453.382 101.036 453.178 100.982 452.97 100.975C452.761 100.968 452.554 101.009 452.364 101.094C452.174 101.179 452.006 101.307 451.873 101.467C451.74 101.628 451.645 101.816 451.596 102.019L447.867 109.218L450.148 110.447Z" fill="#0E1211"/>
<path d="M445.756 113.11L442.19 119.845C442.054 120 441.955 120.184 441.901 120.382C441.846 120.581 441.837 120.79 441.874 120.993C441.912 121.196 441.994 121.387 442.116 121.553C442.238 121.72 442.396 121.856 442.579 121.953C442.761 122.049 442.963 122.103 443.169 122.11C443.375 122.118 443.58 122.078 443.769 121.995C443.957 121.912 444.125 121.787 444.258 121.63C444.392 121.473 444.488 121.287 444.54 121.088L448.092 114.34L445.756 113.11Z" fill="#0E1211"/>
<path d="M463.541 111.349C462.53 113.261 460.522 114.19 459.061 113.425C457.599 112.66 457.244 110.474 458.255 108.562C459.265 106.65 461.273 105.707 462.721 106.472C464.169 107.237 464.552 109.423 463.541 111.349Z" fill="#F3AFF3"/>
<path d="M469.943 114.722C468.932 116.649 466.938 117.577 465.476 116.812C464.014 116.048 463.646 113.862 464.656 111.936C465.667 110.01 467.675 109.095 469.137 109.86C470.598 110.624 470.967 112.81 469.943 114.722Z" fill="#F3AFF3"/>
<path d="M458.932 120.063C457.921 121.989 455.913 122.918 454.451 122.14C452.99 121.361 452.634 119.189 453.645 117.277C454.656 115.364 456.664 114.422 458.126 115.2C459.587 115.979 459.942 118.151 458.932 120.063Z" fill="#F3AFF3"/>
<path d="M482.467 145.84C482.372 153.353 477.768 194.005 477.768 194.005C472.96 204.851 457.36 206.368 452.866 198.377C450.446 193.765 449.62 188.481 450.517 183.351C451.268 178.269 454.218 173.392 456.65 168.871C471.28 157.752 482.563 138.313 482.467 145.84Z" fill="#AA5131"/>
<path d="M482.023 144.611C473.827 135.663 463.09 131.716 453.719 129.762C451.425 130.23 449.342 131.423 447.777 133.164C447.777 134.038 447.08 136.346 448.638 137.685C444.662 139.051 443.816 142.78 444.635 147.247C443.725 147.863 442.961 148.672 442.399 149.616C441.838 150.56 441.491 151.617 441.384 152.711C441.865 153.431 442.414 154.104 443.023 154.719C443.023 154.719 439.718 156.085 439.622 157.806C439.253 165.442 460.44 173.392 467.338 180.796C476.818 170.455 483.58 158.558 482.023 144.611Z" fill="#AA5131"/>
<path d="M482.019 144.61C477.005 139.146 465.722 132.781 458.359 130.95C456.494 130.382 454.534 130.196 452.595 130.404C451.637 130.507 450.716 130.827 449.902 131.341C449.087 131.855 448.401 132.548 447.896 133.368C447.447 134.2 447.325 135.168 447.552 136.085C447.779 137.002 448.34 137.801 449.125 138.327C448.336 138.303 447.554 138.486 446.856 138.857C446.159 139.229 445.571 139.776 445.15 140.444C444.372 141.81 444.016 145.99 444.863 147.274C441.407 148.544 440.847 151.932 443.019 154.787C449.158 156.231 454.915 158.975 459.903 162.833" stroke="#8C371B" stroke-miterlimit="10"/>
<path d="M449.234 138.341C455.941 139.707 464.848 143.286 470.599 148.832" stroke="#8C371B" stroke-miterlimit="10"/>
<path d="M444.984 147.056C452.484 148.763 459.86 151.768 465.611 157.314" stroke="#8C371B" stroke-miterlimit="10"/>
<path d="M443.02 154.732C442.523 154.731 442.033 154.842 441.586 155.057C441.139 155.272 440.746 155.586 440.438 155.975C440.131 156.418 439.922 156.921 439.823 157.451C439.724 157.981 439.738 158.525 439.864 159.049C440.039 159.721 440.361 160.347 440.807 160.879" stroke="#8C371B" stroke-miterlimit="10"/>
<path d="M350.883 209.81C366.701 241.487 383.093 274.012 403.324 310.224" stroke="#E3DAC3" stroke-miterlimit="10"/>
<path d="M473.758 207.318L459.782 208.815C459.009 208.897 458.45 209.591 458.533 210.363L459.162 216.245C459.245 217.017 459.938 217.576 460.711 217.494L474.687 215.998C475.46 215.915 476.019 215.222 475.936 214.449L475.307 208.568C475.224 207.795 474.531 207.236 473.758 207.318Z" fill="#0E1211"/>
<path d="M472.05 208.958L461.809 210.054C461.539 210.083 461.344 210.325 461.373 210.595L461.89 215.431C461.919 215.701 462.161 215.896 462.432 215.867L472.673 214.771C472.943 214.742 473.138 214.5 473.109 214.23L472.592 209.394C472.563 209.124 472.32 208.929 472.05 208.958Z" fill="#F0EADD"/>
<path d="M308.508 167.239C363.184 167.239 408.008 178.786 408.008 149.239C408.008 119.692 363.184 60.2393 308.508 60.2393C253.832 60.2393 211.508 125.692 211.508 155.239C211.508 184.786 253.832 167.239 308.508 167.239Z" fill="#0E1211"/>
<path d="M356.484 103.316C356.484 103.316 370.459 94.2872 370.459 80.6135C370.459 66.9399 357.359 75.3681 357.359 75.3681L356.484 103.316Z" fill="#8C371B"/>
<path d="M262.466 103.316C262.466 103.316 248.438 94.2872 248.438 80.6135C248.438 66.9399 261.537 75.3681 261.537 75.3681L262.466 103.316Z" fill="#8C371B"/>
<path d="M258.375 130.103C261.914 130.103 264.782 122.153 264.782 112.345C264.782 102.538 261.914 94.5874 258.375 94.5874C254.837 94.5874 251.969 102.538 251.969 112.345C251.969 122.153 254.837 130.103 258.375 130.103Z" stroke="#FBAA1F" stroke-width="0.95" stroke-miterlimit="10"/>
<path d="M366.087 112.291C366.087 122.099 363.218 130.049 359.68 130.049C356.142 130.049 353.273 122.113 353.273 112.291C353.273 102.47 356.142 94.5332 359.68 94.5332C363.218 94.5332 366.087 102.538 366.087 112.291Z" stroke="#FBAA1F" stroke-width="0.95" stroke-miterlimit="10"/>
<path d="M288.415 98.8498C287.882 101.759 282.554 103.221 276.503 102.128C270.452 101.035 265.971 97.757 266.504 94.8474C267.037 91.9378 272.364 90.4625 278.429 91.569C284.494 92.6755 288.947 95.8992 288.415 98.8498Z" fill="#D44444"/>
<path d="M326.723 98.8498C327.256 101.759 332.583 103.221 338.648 102.128C344.713 101.035 349.166 97.757 348.634 94.8474C348.101 91.9378 342.773 90.4625 336.708 91.569C330.643 92.6755 326.19 95.8992 326.723 98.8498Z" fill="#D44444"/>
<path d="M289.662 95.8032C287.677 120.555 285.691 145.303 283.706 170.045C283.706 170.045 282.34 242.088 287.422 239.452C296.847 234.534 329.672 171.603 329.672 171.603C329.223 146.332 331.379 121.082 336.106 96.254L289.662 95.8032Z" fill="#AA5131"/>
<path d="M335.558 126.06L287.598 125.268L285.344 149.856C295.958 163.052 313.046 170.892 329.329 169.718C330.629 155.065 332.708 140.492 335.558 126.06Z" fill="#5E2D1B"/>
<path d="M357.949 59.6454C357.949 28.5279 334.946 3.31152 306.574 3.31152C278.202 3.31152 255.267 28.5279 255.267 59.6454C255.27 63.8076 255.696 67.9586 256.537 72.035C255.665 79.3193 255.24 86.6503 255.267 93.9866C255.267 119.312 289.321 140.731 301.984 147.821C303.41 148.617 305.016 149.036 306.649 149.036C308.282 149.036 309.888 148.617 311.314 147.821C323.963 140.731 358.017 119.312 358.017 93.9866C358.048 86.4495 357.67 78.9163 356.884 71.4203C357.614 67.5384 357.971 63.5954 357.949 59.6454Z" fill="#AA5131"/>
<path d="M308.883 4.92334C280.511 4.92334 257.508 28.7327 257.508 58.1017C257.512 62.0336 257.938 65.9537 258.778 69.7947C258.778 69.7947 268.723 70.3274 270.471 54.6594C272.22 38.9914 284.869 23.7468 315.877 25.3997C346.885 27.0525 345.191 70.1635 359.138 69.2073C359.892 65.5535 360.272 61.8325 360.272 58.1017C360.272 28.7327 337.228 4.92334 308.883 4.92334Z" fill="#0E1211"/>
<path d="M258.759 74.8897C257.409 74.8861 256.115 74.3482 255.16 73.3934C254.206 72.4387 253.668 71.1448 253.664 69.7946C253.662 69.4598 253.694 69.1257 253.76 68.7974C253.835 68.4669 253.935 68.1426 254.06 67.8275C254.182 67.5199 254.338 67.2267 254.525 66.9533C254.715 66.6753 254.93 66.4148 255.167 66.1747C255.765 65.5933 256.494 65.1653 257.294 64.9274C258.093 64.6895 258.938 64.6488 259.757 64.8087C260.089 64.8755 260.414 64.9762 260.726 65.1092C261.033 65.2338 261.326 65.3894 261.601 65.5736C261.875 65.7638 262.135 65.9738 262.379 66.202C262.608 66.4491 262.822 66.7091 263.021 66.9806C263.378 67.5464 263.632 68.1707 263.773 68.8247C263.838 69.153 263.87 69.4871 263.868 69.8219C263.867 71.1733 263.332 72.4695 262.379 73.4281C261.409 74.3678 260.11 74.8921 258.759 74.8897Z" fill="#0E1211"/>
<path d="M263.457 69.6307C262.928 69.2173 262.486 68.7035 262.157 68.1188C261.827 67.5342 261.616 66.8901 261.536 66.2237C261.456 65.5574 261.509 64.8817 261.691 64.2357C261.873 63.5896 262.18 62.9859 262.596 62.4591C263.033 61.9105 263.576 61.4567 264.194 61.1255C264.812 60.7943 265.491 60.5927 266.189 60.5331C265.699 59.9522 265.346 59.2693 265.155 58.5342C264.963 57.7992 264.939 57.0306 265.082 56.2848C265.256 55.3467 265.69 54.4763 266.335 53.7733C266.98 53.0704 267.81 52.5631 268.73 52.3098C267.894 51.672 267.276 50.7915 266.961 49.7888C266.645 48.7861 266.648 47.7104 266.968 46.7092C267.295 45.6795 267.941 44.7805 268.813 44.1421C269.684 43.5037 270.736 43.1589 271.817 43.1576C271.161 42.303 270.791 41.2628 270.762 40.1858C270.733 39.1088 271.044 38.05 271.653 37.1608C272.273 36.2782 273.158 35.6158 274.18 35.2696C275.201 34.9233 276.306 34.9111 277.335 35.2348C276.979 34.2184 276.953 33.1156 277.259 32.0832C277.566 31.0508 278.19 30.1413 279.043 29.4839C279.891 28.8398 280.919 28.4754 281.984 28.4412C283.048 28.4069 284.097 28.7045 284.985 29.2927C284.928 28.2386 285.198 27.1925 285.757 26.2976C286.317 25.4026 287.14 24.7026 288.113 24.2931C289.076 23.8966 290.138 23.8031 291.155 24.0252C292.173 24.2473 293.099 24.7744 293.809 25.5362C293.995 24.5176 294.487 23.5799 295.219 22.8478C295.951 22.1157 296.889 21.624 297.907 21.4382C298.904 21.2444 299.936 21.3529 300.87 21.7496C301.805 22.1463 302.6 22.8132 303.153 23.6648C303.5 22.7122 304.12 21.8835 304.937 21.2831C305.754 20.6827 306.73 20.3374 307.743 20.2907C308.75 20.2325 309.752 20.4739 310.622 20.9844C311.493 21.4949 312.192 22.2517 312.633 23.1593C313.101 22.2589 313.826 21.5183 314.716 21.0317C315.607 20.5452 316.622 20.3347 317.632 20.4273C318.709 20.5229 319.727 20.9581 320.54 21.6702C321.352 22.3823 321.918 23.3343 322.154 24.3887C322.877 23.5712 323.841 23.0058 324.908 22.7748C325.974 22.5439 327.086 22.6594 328.082 23.1047C329.075 23.5558 329.897 24.3117 330.43 25.2625C330.963 26.2132 331.179 27.3092 331.047 28.3911C331.994 27.8633 333.085 27.6515 334.161 27.7866C335.237 27.9218 336.242 28.3967 337.03 29.1424C337.801 29.873 338.328 30.8251 338.536 31.8674C338.744 32.9096 338.623 33.9907 338.191 34.9616C339.214 34.7167 340.289 34.7939 341.267 35.1827C342.245 35.5714 343.079 36.2528 343.655 37.1335C344.209 37.9866 344.496 38.9858 344.479 40.0031C344.462 41.0203 344.142 42.0094 343.559 42.8434C344.562 42.8012 345.555 43.0528 346.416 43.5672C347.278 44.0817 347.97 44.8367 348.408 45.7393C348.829 46.6185 348.99 47.599 348.874 48.5665C348.758 49.534 348.369 50.4486 347.753 51.2033C348.711 51.2264 349.644 51.521 350.442 52.053C351.24 52.5849 351.871 53.3324 352.261 54.2085C352.632 55.0371 352.776 55.9498 352.678 56.8526C352.579 57.7554 352.242 58.6156 351.701 59.3447C352.561 59.325 353.412 59.5239 354.174 59.9229C354.936 60.3219 355.584 60.9079 356.058 61.6259C356.805 62.7547 357.074 64.1339 356.805 65.4606C356.536 66.7873 355.751 67.953 354.624 68.7018C353.494 69.4433 352.117 69.7073 350.794 69.4359C349.47 69.1645 348.308 68.3799 347.562 67.2538C346.983 66.3818 346.687 65.3529 346.714 64.3069C346.741 63.2609 347.089 62.2485 347.712 61.4073C346.711 61.4235 345.728 61.1462 344.883 60.6097C344.038 60.0732 343.369 59.301 342.958 58.3885C342.561 57.521 342.418 56.5585 342.546 55.613C342.674 54.6676 343.068 53.7779 343.682 53.0474C342.744 53.0247 341.831 52.7436 341.043 52.235C340.255 51.7264 339.622 51.0102 339.215 50.1651C338.822 49.3495 338.653 48.4441 338.725 47.5416C338.797 46.6391 339.108 45.772 339.625 45.029C338.736 45.0716 337.85 44.881 337.057 44.4761C336.264 44.0711 335.591 43.4659 335.104 42.7204C334.637 42.0019 334.358 41.178 334.291 40.3239C334.224 39.4698 334.372 38.6125 334.721 37.8302C333.905 38.0171 333.056 38.0002 332.249 37.781C331.441 37.5618 330.7 37.1471 330.09 36.5735C329.505 36.0243 329.057 35.3446 328.784 34.5898C328.511 33.8349 328.421 33.0262 328.519 32.2296C327.826 32.6142 327.053 32.8317 326.261 32.8649C325.469 32.8981 324.68 32.7461 323.957 32.4208C323.233 32.0965 322.594 31.608 322.091 30.9939C321.589 30.3798 321.236 29.657 321.061 28.8829C320.528 29.4844 319.86 29.9523 319.113 30.2489C318.366 30.5455 317.559 30.6624 316.758 30.5904C315.884 30.4946 315.048 30.177 314.331 29.6678C313.614 29.1586 313.039 28.4747 312.66 27.6808C312.247 28.4748 311.632 29.1456 310.876 29.6253C310.12 30.105 309.252 30.3767 308.357 30.4128C307.468 30.4474 306.585 30.2503 305.795 29.8408C305.004 29.4313 304.334 28.8235 303.85 28.0769C303.547 28.9071 303.036 29.6457 302.367 30.222C301.697 30.7984 300.891 31.1934 300.025 31.369C299.174 31.5387 298.294 31.4871 297.469 31.2192C296.643 30.9514 295.901 30.4761 295.312 29.8391C295.163 30.6838 294.803 31.4772 294.266 32.1458C293.729 32.8144 293.031 33.3366 292.239 33.6639C291.463 33.9891 290.619 34.1169 289.783 34.0359C288.946 33.9548 288.142 33.6674 287.444 33.1994C287.48 34.0477 287.304 34.8916 286.932 35.6548C286.56 36.418 286.003 37.0765 285.313 37.5706C284.666 38.0691 283.909 38.4039 283.105 38.5466C282.301 38.6893 281.475 38.6356 280.696 38.3902C280.964 39.1607 281.045 39.984 280.931 40.7919C280.817 41.5997 280.511 42.3686 280.04 43.0346C279.579 43.6941 278.966 44.2331 278.252 44.6063C277.539 44.9795 276.747 45.176 275.942 45.1793C276.432 45.8359 276.757 46.6003 276.89 47.4084C277.023 48.2165 276.96 49.0447 276.707 49.8236C276.453 50.632 275.999 51.3635 275.388 51.9507C274.777 52.5379 274.028 52.962 273.21 53.184C273.964 53.759 274.542 54.5329 274.88 55.4185C275.218 56.3041 275.302 57.2664 275.123 58.1972C274.903 59.2843 274.337 60.2709 273.509 61.0096C272.682 61.7483 271.638 62.1993 270.533 62.2952C271.291 63.1903 271.716 64.32 271.736 65.4927C271.755 66.6653 271.369 67.8088 270.642 68.7291C270.165 69.3383 269.555 69.8308 268.859 70.1692C268.164 70.5077 267.4 70.6832 266.626 70.6825C265.481 70.701 264.364 70.3302 263.457 69.6307Z" fill="#0E1211"/>
<path d="M359.078 74.316C357.723 74.3111 356.424 73.7767 355.458 72.8271C355.229 72.5832 355.019 72.323 354.829 72.0484C354.648 71.772 354.492 71.4793 354.365 71.1742C354.23 70.864 354.133 70.5382 354.078 70.2044C354.008 69.8765 353.971 69.5424 353.969 69.2072C353.971 67.856 354.506 66.5604 355.458 65.6009C356.061 65.0192 356.796 64.5913 357.599 64.3536C358.403 64.1158 359.252 64.0751 360.075 64.2349C360.397 64.3035 360.712 64.3994 361.017 64.5218C361.324 64.6511 361.617 64.8112 361.892 64.9999C362.181 65.1751 362.447 65.3862 362.684 65.6282C363.634 66.5885 364.169 67.8836 364.173 69.2345C364.165 70.5886 363.631 71.8867 362.684 72.8544C362.444 73.0924 362.178 73.3031 361.892 73.4827C361.617 73.667 361.324 73.8226 361.017 73.9472C360.712 74.0739 360.397 74.1745 360.075 74.2477C359.745 74.2974 359.411 74.3203 359.078 74.316Z" fill="#0E1211"/>
<path d="M252.529 61.107C252.482 60.1326 252.714 59.1651 253.198 58.3182C253.682 57.4712 254.398 56.78 255.261 56.326C254.426 55.8232 253.751 55.0916 253.318 54.2178C252.885 53.3439 252.711 52.3643 252.816 51.3947C252.919 50.4229 253.302 49.5018 253.918 48.7429C254.534 47.9841 255.356 47.4201 256.286 47.1191C255.54 46.4843 254.992 45.6489 254.706 44.7119C254.42 43.775 254.409 42.7757 254.674 41.8327C254.937 40.8955 255.463 40.053 256.189 39.4044C256.915 38.7558 257.811 38.3282 258.772 38.1718C258.144 37.4242 257.743 36.5122 257.617 35.5438C257.491 34.5754 257.646 33.5912 258.062 32.7078C258.477 31.8229 259.138 31.0764 259.967 30.5579C260.795 30.0394 261.756 29.7709 262.733 29.7846C262.244 28.95 262.001 27.9939 262.032 27.0269C262.064 26.0599 262.368 25.1216 262.911 24.3206C263.461 23.513 264.23 22.8786 265.127 22.4916C266.025 22.1046 267.014 21.9809 267.979 22.135C267.612 21.2142 267.523 20.2064 267.722 19.2356C267.921 18.2647 268.4 17.3733 269.099 16.671C269.784 15.9721 270.656 15.4847 271.61 15.2667C272.564 15.0488 273.56 15.1095 274.481 15.4416C274.288 14.481 274.375 13.4854 274.731 12.5726C275.087 11.6598 275.697 10.8683 276.489 10.2918C277.288 9.72175 278.233 9.3919 279.213 9.34108C280.193 9.29026 281.168 9.52058 282.021 10.0049C281.994 9.02458 282.25 8.05718 282.759 7.21881C283.268 6.38044 284.008 5.70673 284.89 5.27855C285.77 4.85847 286.752 4.69831 287.72 4.81687C288.687 4.93544 289.601 5.32781 290.354 5.94788C290.513 4.98593 290.943 4.08934 291.594 3.36343C292.245 2.63751 293.09 2.11244 294.028 1.84988C294.975 1.58272 295.979 1.59674 296.917 1.89023C297.856 2.18372 298.689 2.744 299.315 3.50274C299.633 2.57152 300.213 1.7522 300.986 1.14377C301.76 0.535338 302.693 0.163817 303.672 0.0740807C304.648 -0.0203427 305.63 0.169265 306.5 0.620055C307.37 1.07085 308.091 1.76359 308.576 2.61484C309.057 1.75579 309.775 1.05384 310.645 0.593407C311.515 0.132973 312.5 -0.0663397 313.48 0.0194395C314.459 0.104165 315.393 0.468575 316.17 1.06922C316.948 1.66987 317.536 2.48142 317.865 3.40712C318.484 2.64228 319.312 2.0746 320.249 1.77372C321.186 1.47284 322.19 1.45185 323.138 1.71329C324.085 1.96521 324.939 2.48641 325.596 3.21376C326.253 3.94111 326.685 4.84339 326.84 5.81129C327.583 5.1747 328.495 4.76745 329.464 4.63893C330.434 4.51042 331.421 4.66617 332.304 5.0873C333.214 5.49788 333.984 6.16779 334.516 7.01327C335.048 7.85875 335.319 8.8423 335.295 9.84098C336.143 9.34552 337.115 9.104 338.096 9.14517C339.076 9.18634 340.025 9.50846 340.828 10.0732C341.626 10.643 342.244 11.4295 342.61 12.3397C342.976 13.2498 343.073 14.2457 342.89 15.2094C343.818 14.8532 344.829 14.7759 345.8 14.9871C346.771 15.1982 347.659 15.6886 348.354 16.3978C349.057 17.0981 349.539 17.9881 349.743 18.9586C349.947 19.9292 349.863 20.9382 349.502 21.8618C350.465 21.6766 351.461 21.7741 352.37 22.1425C353.279 22.511 354.062 23.1346 354.624 23.9381C355.187 24.7286 355.509 25.6646 355.553 26.6339C355.596 27.6031 355.359 28.5643 354.87 29.4021C355.85 29.3832 356.816 29.646 357.651 30.1593C358.486 30.6726 359.157 31.4149 359.583 32.298C359.999 33.1797 360.156 34.1617 360.035 35.1293C359.915 36.0969 359.521 37.01 358.9 37.762C359.857 37.9162 360.751 38.3398 361.477 38.9833C362.203 39.6267 362.73 40.4634 362.998 41.3956C363.275 42.331 363.275 43.3266 362.999 44.2622C362.723 45.1979 362.181 46.0335 361.441 46.6683C362.372 46.9692 363.197 47.5305 363.819 48.2858C364.441 49.0411 364.834 49.9588 364.951 50.9303C365.063 51.8998 364.896 52.8811 364.47 53.7593C364.045 54.6375 363.377 55.3761 362.547 55.8888C363.41 56.3357 364.127 57.0215 364.611 57.8643C365.096 58.7072 365.328 59.6716 365.279 60.6425C365.253 61.3112 365.095 61.9681 364.814 62.5755C364.533 63.1829 364.135 63.7288 363.642 64.182C363.15 64.6351 362.573 64.9865 361.944 65.2159C361.315 65.4454 360.648 65.5484 359.979 65.5191C359.31 65.4928 358.652 65.3347 358.044 65.054C357.436 64.7732 356.889 64.3753 356.435 63.8831C355.981 63.3908 355.628 62.8138 355.397 62.1851C355.166 61.5564 355.061 60.8883 355.089 60.2191C355.134 59.3922 355.377 58.5882 355.797 57.875C356.218 57.1617 356.804 56.5602 357.507 56.1211C356.762 55.7446 356.123 55.1894 355.646 54.5052C355.17 53.8209 354.87 53.0291 354.775 52.2006C354.672 51.37 354.776 50.527 355.076 49.7457C355.376 48.9644 355.864 48.2689 356.496 47.7202C355.701 47.466 354.982 47.0203 354.401 46.4224C353.819 45.8244 353.394 45.0926 353.163 44.2915C352.93 43.4885 352.896 42.6407 353.065 41.8218C353.234 41.0029 353.601 40.2376 354.132 39.5925C353.308 39.4731 352.525 39.1528 351.853 38.6597C351.182 38.1666 350.641 37.5159 350.28 36.7648C349.918 36.0132 349.747 35.1841 349.78 34.3505C349.813 33.5169 350.051 32.7042 350.472 31.9838C349.636 31.9993 348.809 31.8094 348.063 31.4307C347.318 31.052 346.677 30.4962 346.196 29.8119C345.713 29.1327 345.405 28.3444 345.3 27.5174C345.195 26.6904 345.296 25.8503 345.595 25.0719C344.779 25.2354 343.935 25.1963 343.137 24.9582C342.339 24.7201 341.612 24.2901 341.019 23.7059C340.439 23.1129 340.011 22.3878 339.773 21.5931C339.535 20.7983 339.494 19.9577 339.653 19.1434C338.875 19.4352 338.037 19.5318 337.213 19.4246C336.389 19.3174 335.604 19.0098 334.927 18.5287C334.25 18.0457 333.701 17.4052 333.328 16.6627C332.954 15.9202 332.767 15.0979 332.782 14.2668C332.068 14.6885 331.261 14.9289 330.432 14.967C329.604 15.005 328.778 14.8397 328.028 14.4854C327.276 14.1347 326.622 13.6052 326.122 12.9432C325.622 12.2813 325.291 11.507 325.16 10.6879C324.53 11.2237 323.779 11.5982 322.972 11.779C322.166 11.9599 321.327 11.9417 320.529 11.7261C319.726 11.5134 318.987 11.1071 318.377 10.5427C317.768 9.9783 317.306 9.27302 317.032 8.48864C316.511 9.1334 315.841 9.64099 315.079 9.96718C314.317 10.2934 313.487 10.4282 312.661 10.3601C311.834 10.2873 311.037 10.0158 310.338 9.56867C309.638 9.12153 309.058 8.51199 308.645 7.79198C308.241 8.51504 307.669 9.12991 306.977 9.5842C306.285 10.0385 305.493 10.3187 304.67 10.401C303.846 10.4513 303.023 10.3026 302.269 9.96731C301.515 9.63206 300.853 9.12017 300.339 8.47498C300.07 9.25658 299.615 9.96096 299.013 10.5274C298.411 11.0938 297.68 11.5052 296.883 11.7261C296.087 11.9519 295.247 11.9792 294.437 11.8053C293.628 11.6315 292.873 11.2619 292.239 10.7289C292.104 11.5394 291.777 12.3059 291.285 12.9641C290.793 13.6224 290.15 14.1534 289.411 14.5127C288.663 14.8753 287.838 15.0499 287.007 15.0213C286.177 14.9927 285.365 14.7619 284.644 14.3488C284.673 15.1797 284.496 16.0049 284.129 16.7509C283.762 17.4968 283.216 18.1405 282.54 18.6244C281.866 19.1112 281.083 19.4266 280.26 19.5432C279.437 19.6598 278.597 19.5742 277.814 19.2937C277.976 20.11 277.937 20.9537 277.699 21.7512C277.461 22.5487 277.031 23.276 276.448 23.8698C275.867 24.4667 275.149 24.912 274.356 25.1668C273.563 25.4217 272.719 25.4782 271.899 25.3314C272.198 26.1083 272.302 26.9465 272.202 27.7728C272.102 28.5991 271.801 29.3883 271.326 30.0714C270.853 30.7566 270.22 31.3163 269.482 31.7019C268.744 32.0874 267.924 32.2874 267.091 32.2844C267.518 32.9963 267.763 33.8028 267.803 34.6321C267.844 35.4614 267.679 36.2879 267.323 37.038C266.966 37.7974 266.426 38.456 265.751 38.9544C265.076 39.4528 264.288 39.7753 263.457 39.893C263.995 40.5322 264.37 41.2928 264.548 42.1091C264.727 42.9254 264.704 43.7729 264.482 44.5784C264.25 45.3818 263.827 46.117 263.249 46.7213C262.671 47.3255 261.955 47.7807 261.163 48.048C261.802 48.5867 262.297 49.2755 262.605 50.0526C262.912 50.8298 263.022 51.6711 262.925 52.5012C262.835 53.3348 262.538 54.1327 262.06 54.8222C261.583 55.5118 260.941 56.0709 260.193 56.4489C260.906 56.88 261.505 57.4783 261.935 58.1923C262.366 58.9063 262.617 59.7144 262.665 60.5469C262.728 61.8991 262.254 63.2213 261.345 64.2246C260.436 65.228 259.168 65.8309 257.816 65.9016H257.556C256.268 65.8834 255.035 65.3793 254.103 64.4902C253.17 63.6011 252.609 62.3927 252.529 61.107Z" fill="#0E1211"/>
<path d="M312.963 112.1C315.445 112.1 317.457 110.088 317.457 107.605C317.457 105.123 315.445 103.111 312.963 103.111C310.481 103.111 308.469 105.123 308.469 107.605C308.469 110.088 310.481 112.1 312.963 112.1Z" stroke="#0E1211" stroke-width="0.5" stroke-miterlimit="10"/>
<path d="M303.291 111.745C305.773 111.745 307.785 109.733 307.785 107.25C307.785 104.768 305.773 102.756 303.291 102.756C300.809 102.756 298.797 104.768 298.797 107.25C298.797 109.733 300.809 111.745 303.291 111.745Z" stroke="#0E1211" stroke-width="0.5" stroke-miterlimit="10"/>
<path d="M308.208 113.302C306.668 113.2 305.23 112.494 304.207 111.338C303.184 110.182 302.658 108.669 302.744 107.127V64.4809C302.654 62.9373 303.178 61.4207 304.202 60.2616C305.225 59.1025 306.665 58.3949 308.208 58.293C309.998 58.293 311.473 59.8092 312.593 61.7626C312.784 62.1197 312.883 62.5188 312.88 62.9237V108.685C312.883 109.09 312.784 109.489 312.593 109.846C311.473 111.786 309.998 113.302 308.208 113.302Z" stroke="#0E1211" stroke-miterlimit="10"/>
<path d="M274.594 64.0166C279.186 62.235 284.042 61.2242 288.964 61.025C297.16 60.6698 304.55 64.0165 303.02 60.6698C301.49 57.3231 278.869 56.7904 274.594 64.0166Z" fill="#0E1211"/>
<path d="M341.445 64.0167C336.749 62.2515 331.8 61.2552 326.787 61.0661C318.359 60.711 310.873 64.0167 312.444 60.711C314.015 57.4053 337.087 56.8998 341.445 64.0167Z" fill="#0E1211"/>
<path d="M312.979 61.5166C312.979 58.7026 310.698 56.4214 307.884 56.4214C305.07 56.4214 302.789 58.7026 302.789 61.5166V108.22C302.789 111.034 305.07 113.315 307.884 113.315C310.698 113.315 312.979 111.034 312.979 108.22V61.5166Z" fill="#AA5131"/>
<path d="M291.508 122.14H321.642C321.642 122.14 320.945 132.111 307.449 132.822C293.256 133.573 291.508 122.14 291.508 122.14Z" fill="#52261F"/>
<path d="M307.446 132.781C310.578 132.732 313.641 131.855 316.325 130.24C313.379 128.693 310.09 127.913 306.763 127.972C303.367 127.902 300.01 128.717 297.023 130.336C300.135 132.274 303.798 133.133 307.446 132.781Z" fill="white" stroke="#52261F" stroke-miterlimit="10"/>
<path d="M292.464 125.008C301.819 127.059 311.508 127.059 320.863 125.008C321.268 124.107 321.531 123.149 321.642 122.167H291.508C291.705 123.151 292.026 124.106 292.464 125.008Z" fill="white" stroke="#52261F" stroke-miterlimit="10"/>
<path d="M265.031 84.165C265.149 84.7373 265.403 85.2727 265.771 85.726C266.14 86.1793 266.612 86.537 267.148 86.7689C267.684 87.0008 268.268 87.1 268.851 87.0581C269.434 87.0162 269.998 86.8344 270.495 86.5282C274.474 84.18 279.203 83.4513 283.704 84.4929C290.357 85.8589 291.75 93.7817 291.75 93.7817C291.75 93.7817 294.305 88.7411 286.655 83.5776C279.005 78.4142 269.949 84.3972 269.949 84.3972C269.949 84.3972 265.96 85.8042 265.031 84.165Z" fill="black"/>
<path d="M268.516 85.4901C269.899 88.3752 272.073 90.8082 274.785 92.5061C277.497 94.204 280.635 95.097 283.835 95.0813C287.035 95.0656 290.164 94.1417 292.859 92.4172C295.554 90.6927 297.704 88.2384 299.059 85.3398" fill="white"/>
<path d="M268.516 85.4901C269.899 88.3752 272.073 90.8082 274.785 92.5061C277.497 94.204 280.635 95.097 283.835 95.0813C287.035 95.0656 290.164 94.1417 292.859 92.4172C295.554 90.6927 297.704 88.2384 299.059 85.3398" stroke="black" stroke-miterlimit="10"/>
<path d="M268.516 85.5586C269.823 82.5892 271.97 80.0665 274.692 78.3006C277.414 76.5347 280.592 75.6024 283.837 75.6184C287.081 75.6343 290.25 76.5978 292.955 78.3904C295.659 80.1831 297.781 82.7267 299.059 85.7088" fill="white"/>
<path d="M268.516 85.5586C269.823 82.5892 271.97 80.0665 274.692 78.3006C277.414 76.5347 280.592 75.6024 283.837 75.6184C287.081 75.6343 290.25 76.5978 292.955 78.3904C295.659 80.1831 297.781 82.7267 299.059 85.7088" stroke="black" stroke-miterlimit="10"/>
<path d="M288.01 94.5874C292.529 94.5874 296.193 90.5571 296.193 85.5854C296.193 80.6138 292.529 76.5835 288.01 76.5835C283.491 76.5835 279.828 80.6138 279.828 85.5854C279.828 90.5571 283.491 94.5874 288.01 94.5874Z" fill="black"/>
<path d="M350.488 83.6734C350.369 84.2451 350.115 84.78 349.747 85.2331C349.379 85.6861 348.907 86.0442 348.372 86.2771C347.836 86.51 347.253 86.611 346.67 86.5715C346.088 86.532 345.523 86.3532 345.024 86.0502C341.043 83.6952 336.308 82.9615 331.801 84.0012C325.162 85.3672 323.769 93.29 323.769 93.29C323.769 93.29 321.215 88.2631 328.864 83.0997C336.514 77.9362 345.557 83.9056 345.557 83.9056C345.557 83.9056 349.518 85.3126 350.488 83.6734Z" fill="black"/>
<path d="M315.969 84.9711C317.351 87.8568 319.524 90.2907 322.235 91.9898C324.946 93.689 328.084 94.5834 331.284 94.5691C334.483 94.5548 337.613 93.6323 340.309 91.909C343.005 90.1857 345.156 87.7324 346.512 84.8345" fill="white"/>
<path d="M315.969 84.9711C317.351 87.8568 319.524 90.2907 322.235 91.9898C324.946 93.689 328.084 94.5834 331.284 94.5691C334.483 94.5548 337.613 93.6323 340.309 91.909C343.005 90.1857 345.156 87.7324 346.512 84.8345" stroke="black" stroke-miterlimit="10"/>
<path d="M315.969 85.0801C317.271 82.1052 319.414 79.5763 322.136 77.8052C324.858 76.034 328.038 75.0979 331.286 75.1125C334.533 75.127 337.705 76.0914 340.41 77.8869C343.116 79.6823 345.237 82.2303 346.512 85.2167" fill="white"/>
<path d="M315.969 85.0801C317.271 82.1052 319.414 79.5763 322.136 77.8052C324.858 76.034 328.038 75.0979 331.286 75.1125C334.533 75.127 337.705 76.0914 340.41 77.8869C343.116 79.6823 345.237 82.2303 346.512 85.2167" stroke="black" stroke-miterlimit="10"/>
<path d="M335.464 94.1094C339.983 94.1094 343.646 90.0791 343.646 85.1074C343.646 80.1358 339.983 76.1055 335.464 76.1055C330.945 76.1055 327.281 80.1358 327.281 85.1074C327.281 90.0791 330.945 94.1094 335.464 94.1094Z" fill="black"/>
</svg>
